<svg width="152" height="22" viewBox="0 0 152 22" fill="none" xmlns="http://www.w3.org/2000/svg">
<path d="M9.65643 18.797L6.38397 21.6758C5.58834 21.1996 4.84304 20.6616 4.15707 20.0681C2.67838 18.7665 1.54482 17.194 0.837292 15.4629C0.12976 13.7318 -0.134303 11.8848 0.0639482 10.0537C0.2622 8.22254 0.917878 6.45245 1.98419 4.86972C3.0505 3.28698 4.50116 1.93062 6.23264 0.89743L9.47489 3.74943C8.68407 4.13867 7.95764 4.62129 7.31588 5.18384C6.41136 5.97883 5.69385 6.92262 5.20433 7.96132C4.71481 9.00002 4.46285 10.1133 4.46285 11.2376C4.46285 12.3619 4.71481 13.4751 5.20433 14.5138C5.69385 15.5525 6.41136 16.4963 7.31588 17.2913C7.90715 17.8107 8.81334 18.4195 9.65643 18.797Z" fill="black"/>
<path d="M24.2508 20.0694C23.6415 20.6021 22.9802 21.0867 22.2746 21.5178L19.0299 18.6734C21.9632 17.1964 23.944 14.4172 23.944 11.2387C23.9474 10.1141 23.697 8.99994 23.2073 7.96088C22.7175 6.92182 21.9982 5.97846 21.0908 5.18539C20.4137 4.59002 19.9633 4.31402 19.1768 3.87452L22.4118 1.02252C23.1715 1.50855 23.5767 1.81793 24.2487 2.40857C25.5693 3.5676 26.617 4.94408 27.3318 6.45929C28.0467 7.9745 28.4146 9.5987 28.4146 11.239C28.4146 12.8793 28.0467 14.5035 27.3318 16.0187C26.617 17.5339 25.5693 18.9104 24.2487 20.0694H24.2508Z" fill="black"/>
<path d="M12.4556 6.36298L8.72559 9.64133L15.9291 15.9726L19.6591 12.6942L12.4556 6.36298Z" fill="black"/>
<path d="M46.1158 0.878815H44.403V21.4558H46.1158V0.878815Z" fill="#E9204F"/>
<path d="M61.7919 4.2853H63.8814V9.69897H66.1228V4.2853H68.2123V17.582H66.1228V11.5985H63.8814V17.582H61.7919V4.2853ZM74.7072 4.2853H76.7967V17.582H74.7072V4.2853ZM83.3004 4.2853H88.999V6.18483H85.3899V9.69897H88.2582V11.5985H85.3899V15.6825H88.999V17.582H83.3004V4.2853ZM103.121 4.2853H105.21V9.69897H107.452V4.2853H109.541V17.582H107.452V11.5985H105.21V17.582H103.121V4.2853ZM122.191 18.8167C121.241 18.8167 120.658 18.3925 120.443 17.544C120.051 17.696 119.588 17.772 119.056 17.772C118.031 17.772 117.246 17.4807 116.701 16.8982C116.156 16.3157 115.884 15.4925 115.884 14.4288V7.43852C115.884 6.37478 116.156 5.55165 116.701 4.96913C117.246 4.3866 118.031 4.09534 119.056 4.09534C120.082 4.09534 120.867 4.3866 121.412 4.96913C121.956 5.55165 122.229 6.37478 122.229 7.43852V14.4288C122.229 15.3153 122.032 16.0434 121.64 16.6133C121.716 16.7399 121.811 16.8222 121.925 16.8602C122.039 16.8982 122.203 16.9172 122.419 16.9172H122.742V18.8167H122.191ZM119.056 15.8725C119.778 15.8725 120.139 15.4356 120.139 14.5618V7.30556C120.139 6.43177 119.778 5.99488 119.056 5.99488C118.335 5.99488 117.974 6.43177 117.974 7.30556V14.5618C117.974 15.4356 118.335 15.8725 119.056 15.8725Z" fill="black"/>
</svg>
